<?xml version="1.0" encoding="UTF-8"?>
<svg xmlns="http://www.w3.org/2000/svg" width="1600" height="960" viewBox="0 0 1600 960" fill="none">
  <defs>
    <linearGradient id="bg" x1="84" y1="74" x2="1498" y2="885" gradientUnits="userSpaceOnUse">
      <stop stop-color="#16110e"/>
      <stop offset="0.5" stop-color="#1f1815"/>
      <stop offset="1" stop-color="#090807"/>
    </linearGradient>
    <radialGradient id="glow" cx="0" cy="0" r="1" gradientUnits="userSpaceOnUse" gradientTransform="translate(1170 210) rotate(129.473) scale(426 533)">
      <stop stop-color="#d7b47a22"/>
      <stop offset="1" stop-color="#00000000"/>
    </radialGradient>
    <linearGradient id="panel" x1="212" y1="664" x2="1350" y2="664" gradientUnits="userSpaceOnUse">
      <stop stop-color="#181513"/>
      <stop offset="1" stop-color="#101013"/>
    </linearGradient>
    <filter id="shadow" x="58" y="250" width="1284" height="410" filterUnits="userSpaceOnUse" color-interpolation-filters="sRGB">
      <feDropShadow dx="0" dy="18" stdDeviation="24" flood-color="#000000" flood-opacity="0.36"/>
    </filter>
  </defs>
  <rect width="1600" height="960" rx="44" fill="url(#bg)"/>
  <rect width="1600" height="960" rx="44" fill="url(#glow)"/>
  <circle cx="1275" cy="174" r="182" fill="#d7b47a33"/>
  <circle cx="306" cy="770" r="220" fill="#d7b47a22"/>
  <path d="M0 712C290 640 535 612 801 612C1068 612 1319 642 1600 712V960H0V712Z" fill="#0a0a0d"/>
  <g filter="url(#shadow)">
    <path d="M141 494C189 421 309 371 454 372H833C983 377 1097 430 1173 497L1240 578H90L141 494Z M270 387L355 306H748L879 383Z" transform="translate(130 0)" fill="#191919" stroke="#494542" stroke-width="10" stroke-linejoin="round"/>
    <path d="M503 401H1095" stroke="#d7b47a" stroke-opacity="0.42" stroke-width="5" stroke-linecap="round"/>
    <path d="M443 532H1204" stroke="#0d0e11" stroke-opacity="0.32" stroke-width="10" stroke-linecap="round"/>
    <circle cx="400" cy="579" r="86" fill="#0e0f12" stroke="#d7b47a" stroke-opacity="0.85" stroke-width="8"/>
    <circle cx="400" cy="579" r="36" fill="#1f2024" stroke="#f1e8db" stroke-opacity="0.48" stroke-width="4"/>
    <circle cx="1030" cy="579" r="86" fill="#0e0f12" stroke="#d7b47a" stroke-opacity="0.85" stroke-width="8"/>
    <circle cx="1030" cy="579" r="36" fill="#1f2024" stroke="#f1e8db" stroke-opacity="0.48" stroke-width="4"/>
    <path d="M514 398L610 325H907L1009 396" stroke="#fbf6ef" stroke-opacity="0.22" stroke-width="8" stroke-linecap="round" stroke-linejoin="round"/>
    <path d="M627 330L598 403" stroke="#fbf6ef" stroke-opacity="0.16" stroke-width="5" stroke-linecap="round"/>
    <path d="M856 330L886 403" stroke="#fbf6ef" stroke-opacity="0.16" stroke-width="5" stroke-linecap="round"/>
  </g>
  <rect x="132" y="104" width="338" height="54" rx="27" fill="#fff8ef"/>
  <text x="164" y="139" fill="#d7b47a" font-size="22" font-family="Arial, Helvetica, sans-serif" letter-spacing="8">SALON DETALI</text>
  <text x="132" y="238" fill="#f4ede2" font-size="88" font-weight="700" font-family="Georgia, 'Times New Roman', serif">Toyota Prado</text>
  <text x="132" y="292" fill="#d7b47a" font-size="28" font-family="Arial, Helvetica, sans-serif" letter-spacing="4">PREMIUM SUV</text>
  <rect x="132" y="648" width="1336" height="188" rx="32" fill="url(#panel)" stroke="#d7b47a33"/>
  <text x="180" y="718" fill="#f7f0e8" font-size="34" font-weight="600" font-family="Arial, Helvetica, sans-serif">J150 • 2.8 Diesel • 2021 • Qara</text>
  <text x="180" y="776" fill="#b9b2a8" font-size="28" font-family="Arial, Helvetica, sans-serif">brc-toyota-prado-j150-2021-black</text>
  <text x="1250" y="718" fill="#d7b47a" font-size="28" font-family="Arial, Helvetica, sans-serif" text-anchor="end">TOYOTA</text>
  <text x="1250" y="776" fill="#f7f0e8" font-size="42" font-weight="700" font-family="Georgia, 'Times New Roman', serif" text-anchor="end">J150</text>
</svg>